<?xml version="1.0" standalone="no"?>
<!DOCTYPE svg PUBLIC "-//W3C//DTD SVG 20010904//EN"
 "http://www.w3.org/TR/2001/REC-SVG-20010904/DTD/svg10.dtd">
<svg version="1.0" xmlns="http://www.w3.org/2000/svg"
 width="600.000000pt" height="600.000000pt" viewBox="0 0 600.000000 600.000000"
 preserveAspectRatio="xMidYMid meet">
<metadata>
Created by potrace 1.11, written by Peter Selinger 2001-2013
</metadata>
<g transform="translate(0.000000,600.000000) scale(0.100000,-0.100000)"
fill="#000000" stroke="none">
<path d="M1100 5644 c0 -8 5 -12 10 -9 6 4 8 11 5 16 -9 14 -15 11 -15 -7z"/>
<path d="M1043 5605 c0 -22 2 -30 4 -17 2 12 2 30 0 40 -3 9 -5 -1 -4 -23z"/>
<path d="M1228 5597 c-3 -19 -2 -25 4 -19 6 6 8 18 6 28 -3 14 -5 12 -10 -9z"/>
<path d="M1291 5604 c0 -11 3 -14 6 -6 3 7 2 16 -1 19 -3 4 -6 -2 -5 -13z"/>
<path d="M2162 5600 c0 -14 2 -19 5 -12 2 6 2 18 0 25 -3 6 -5 1 -5 -13z"/>
<path d="M883 5603 c9 -2 23 -2 30 0 6 3 -1 5 -18 5 -16 0 -22 -2 -12 -5z"/>
<path d="M978 5603 c7 -3 16 -2 19 1 4 3 -2 6 -13 5 -11 0 -14 -3 -6 -6z"/>
<path d="M1903 5603 c9 -2 23 -2 30 0 6 3 -1 5 -18 5 -16 0 -22 -2 -12 -5z"/>
<path d="M1998 5603 c7 -3 16 -2 19 1 4 3 -2 6 -13 5 -11 0 -14 -3 -6 -6z"/>
<path d="M598 5243 c166 -2 438 -2 605 0 166 1 30 2 -303 2 -333 0 -469 -1
-302 -2z"/>
<path d="M4427 3443 c-22 -4 -26 -8 -22 -26 3 -12 1 -35 -4 -52 -5 -16 -10
-24 -10 -17 -1 6 -6 12 -12 12 -7 0 -5 -9 4 -24 17 -26 16 -108 -2 -130 -14
-16 -15 -93 -2 -141 6 -22 11 -60 11 -84 0 -86 14 -29 15 64 1 73 5 99 18 113
9 10 17 30 17 43 0 14 6 33 14 44 7 11 16 36 19 56 9 62 34 108 64 120 55 21
-18 36 -110 22z"/>
<path d="M4733 3442 c-8 -5 -6 -18 8 -48 22 -50 34 -143 20 -164 -10 -15 -21
-16 -228 -19 -35 -1 -78 -34 -67 -52 3 -5 -4 -30 -16 -56 -29 -62 -24 -86 20
-95 19 -4 47 -10 62 -14 15 -3 44 -3 63 0 45 9 87 68 87 123 0 48 12 63 54 63
45 0 49 -21 20 -107 -32 -94 -43 -113 -66 -113 -23 0 -60 -54 -60 -87 0 -16 6
-23 19 -23 11 0 23 5 26 10 11 18 24 11 72 -37 l48 -48 -45 -5 c-56 -7 -147
-50 -179 -84 -33 -35 -21 -42 28 -16 42 21 78 21 141 0 14 -4 34 -11 45 -15
35 -11 -5 -24 -66 -21 -30 2 -65 -1 -79 -7 -21 -9 -11 -12 70 -20 52 -5 125
-9 163 -9 65 0 88 -10 46 -21 -26 -7 -22 -37 7 -52 17 -9 19 -14 11 -33 -8
-18 -7 -27 7 -40 16 -16 18 -16 32 2 8 11 14 26 14 33 0 7 5 13 10 13 6 0 10
-9 10 -20 0 -26 34 -44 49 -26 6 7 10 24 9 37 -3 23 0 24 70 27 l73 3 -3 37
c-3 34 -1 37 27 42 54 10 64 3 57 -43 -5 -39 -4 -41 13 -27 9 8 32 13 49 12
39 -4 64 19 42 37 -22 18 -8 51 21 51 20 0 24 -4 19 -17 -6 -15 -5 -15 13 1
29 27 47 120 32 174 -9 35 -8 47 4 65 8 12 16 54 19 92 3 39 9 110 14 159 9
83 8 92 -13 130 -22 41 -39 74 -68 134 -17 33 -16 34 27 36 10 1 20 8 21 17 2
13 -11 17 -73 23 -104 8 -664 7 -679 -2z m217 -692 c14 0 19 -9 22 -39 3 -34
0 -40 -19 -44 -27 -5 -50 18 -53 53 -3 38 -1 43 16 36 9 -3 24 -6 34 -6z m360
-82 c0 -5 -11 -8 -25 -8 -29 0 -29 0 -13 35 l12 26 13 -23 c7 -13 12 -26 13
-30z"/>
<path d="M5622 3443 c-72 -3 -83 -6 -80 -21 3 -14 16 -17 72 -19 37 -1 74 -4
82 -7 10 -4 14 3 14 24 0 17 -1 29 -2 28 -2 -1 -40 -4 -86 -5z"/>
<path d="M4046 3425 c4 -8 7 -15 9 -15 2 0 5 7 9 15 3 9 0 15 -9 15 -9 0 -12
-6 -9 -15z"/>
<path d="M4095 3430 c3 -5 8 -10 11 -10 2 0 4 5 4 10 0 6 -5 10 -11 10 -5 0
-7 -4 -4 -10z"/>
<path d="M4120 3436 c0 -2 9 -6 20 -9 11 -3 20 -1 20 4 0 5 -9 9 -20 9 -11 0
-20 -2 -20 -4z"/>
<path d="M4197 3424 c3 -9 9 -12 12 -7 3 4 15 10 26 11 34 6 30 12 -8 12 -29
0 -35 -3 -30 -16z"/>
<path d="M4287 3424 c5 -13 7 -13 14 -2 7 11 11 10 19 -2 8 -13 11 -13 27 3
16 16 15 17 -25 17 -34 0 -40 -3 -35 -16z"/>
<path d="M4686 3425 c4 -8 7 -15 9 -15 2 0 5 7 9 15 3 9 0 15 -9 15 -9 0 -12
-6 -9 -15z"/>
<path d="M590 3380 c-20 -20 -20 -31 -18 -348 l3 -327 560 0 560 0 3 327 c2
317 2 328 -18 348 -20 20 -32 20 -545 20 -513 0 -525 0 -545 -20z m1065 -330
l0 -295 -517 -3 -518 -2 0 300 0 300 518 -2 517 -3 0 -295z"/>
<path d="M837 3274 c-4 -4 -7 -58 -7 -121 l0 -113 210 0 c245 0 223 -14 218
140 l-3 95 -206 3 c-113 1 -208 -1 -212 -4z m226 -61 c-7 -2 -21 -2 -30 0 -10
3 -4 5 12 5 17 0 24 -2 18 -5z m-8 -37 c18 -13 18 -14 -3 -25 -29 -16 -32 -14
-32 14 0 28 8 31 35 11z m-68 -18 c-3 -8 -6 -5 -6 6 -1 11 2 17 5 13 3 -3 4
-12 1 -19z m66 -45 c-7 -2 -19 -2 -25 0 -7 3 -2 5 12 5 14 0 19 -2 13 -5z"/>
<path d="M850 2996 c0 -10 9 -16 21 -16 24 0 21 23 -4 28 -10 2 -17 -3 -17
-12z"/>
<path d="M1300 2900 c0 -17 7 -20 50 -20 43 0 50 3 50 20 0 17 -7 20 -50 20
-43 0 -50 -3 -50 -20z m65 0 c-3 -5 -10 -10 -16 -10 -5 0 -9 5 -9 10 0 6 7 10
16 10 8 0 12 -4 9 -10z"/>
<path d="M5656 3369 c-28 -4 -53 -6 -58 -3 -4 3 -8 -4 -8 -15 0 -17 8 -20 60
-23 60 -3 60 -3 60 25 0 15 -1 26 -2 26 -2 -1 -25 -5 -52 -10z"/>
<path d="M4685 3360 c-4 -7 -3 -16 3 -22 14 -14 45 -2 40 15 -6 16 -34 21 -43
7z"/>
<path d="M5463 3350 c1 -11 5 -20 9 -20 4 0 8 9 8 20 0 11 -4 20 -9 20 -6 0
-9 -9 -8 -20z"/>
<path d="M5510 3350 c0 -11 4 -20 9 -20 5 0 7 9 4 20 -3 11 -7 20 -9 20 -2 0
-4 -9 -4 -20z"/>
<path d="M5550 3350 c0 -11 4 -20 9 -20 5 0 7 9 4 20 -3 11 -7 20 -9 20 -2 0
-4 -9 -4 -20z"/>
<path d="M2170 2920 l0 -440 835 0 835 0 0 440 0 440 -835 0 -835 0 0 -440z
m876 339 c3 -6 2 -15 -2 -19 -12 -12 -38 5 -30 19 9 14 23 14 32 0z m-166 -88
c0 -51 26 -68 100 -65 36 1 50 0 33 -3 -32 -4 -46 -22 -20 -24 6 -1 1 -5 -13
-9 -36 -11 -52 -12 -45 0 7 12 -21 2 -52 -18 -20 -13 -23 -12 -23 2 0 9 -4 16
-10 16 -12 0 -11 99 2 123 12 24 28 12 28 -22z m184 -144 c-3 -8 -22 -14 -47
-15 -23 -1 -50 -5 -62 -8 -15 -5 -17 -4 -8 6 12 13 62 27 100 29 15 1 21 -4
17 -12z m-169 -249 c6 -5 3 -8 -7 -8 -18 0 -48 36 -48 59 0 7 10 1 22 -15 12
-16 27 -32 33 -36z"/>
<path d="M4230 3351 c0 -5 6 -11 13 -14 8 -3 14 1 14 9 0 8 -6 14 -14 14 -7 0
-13 -4 -13 -9z"/>
<path d="M4673 3283 c-15 -6 -17 -33 -3 -33 6 0 10 8 11 18 0 15 1 15 8 -2 5
-14 10 -16 15 -8 14 22 -4 36 -31 25z"/>
<path d="M5555 3279 c-4 -6 -5 -12 -2 -15 2 -3 7 2 10 11 7 17 1 20 -8 4z"/>
<path d="M5643 3268 c-2 -24 24 -23 36 1 9 16 7 19 -12 17 -14 0 -24 -8 -24
-18z"/>
<path d="M5693 3274 c-3 -8 -1 -20 6 -27 8 -8 11 -4 11 16 0 30 -7 35 -17 11z"/>
<path d="M5521 3264 c0 -11 3 -14 6 -6 3 7 2 16 -1 19 -3 4 -6 -2 -5 -13z"/>
<path d="M5702 3190 c0 -14 2 -19 5 -12 2 6 2 18 0 25 -3 6 -5 1 -5 -13z"/>
<path d="M5702 3110 c0 -14 2 -19 5 -12 2 6 2 18 0 25 -3 6 -5 1 -5 -13z"/>
<path d="M4691 2806 c-11 -13 -11 -20 -3 -28 15 -15 24 -5 20 23 -3 21 -4 21
-17 5z"/>
<path d="M1114 2655 c-4 -9 -2 -21 4 -27 15 -15 44 -1 40 19 -4 23 -36 29 -44
8z"/>
<path d="M5112 2475 c2 -14 8 -26 13 -26 6 0 11 12 13 26 2 18 -1 25 -13 25
-12 0 -15 -7 -13 -25z"/>
<path d="M5205 2460 c-3 -5 -1 -10 4 -10 6 0 11 5 11 10 0 6 -2 10 -4 10 -3 0
-8 -4 -11 -10z"/>
<path d="M4805 2409 c-19 -4 5 -7 64 -8 52 0 91 2 87 7 -10 9 -112 10 -151 1z"/>
<path d="M5020 2410 c-31 -5 -8 -7 75 -7 74 -1 109 2 90 7 -37 9 -105 9 -165
0z"/>
<path d="M4693 2403 c9 -2 23 -2 30 0 6 3 -1 5 -18 5 -16 0 -22 -2 -12 -5z"/>
<path d="M5520 1672 l-185 -2 -18 -32 c-10 -17 -15 -33 -11 -37 4 -3 9 0 11 6
10 29 40 55 58 51 17 -3 16 -6 -11 -22 -17 -10 -39 -31 -47 -46 -17 -27 -16
-28 22 -53 21 -14 38 -33 37 -42 -1 -11 54 -51 164 -119 l165 -103 3 104 c1
57 1 148 0 201 l-3 97 -185 -3z"/>
<path d="M4115 1574 c-32 -52 -62 -97 -67 -100 -4 -3 -8 -49 -8 -102 0 -95 1
-97 28 -113 15 -9 139 -82 275 -163 136 -80 249 -146 251 -146 6 0 107 167
261 430 75 129 146 247 156 263 l20 27 -174 0 -173 0 33 -127 c18 -71 33 -137
33 -149 0 -25 -47 -42 -211 -79 -154 -33 -162 -33 -176 8 -24 67 -84 321 -79
333 4 11 -8 14 -52 14 l-57 0 -60 -96z"/>
<path d="M4417 1648 c-69 -17 -86 -25 -83 -37 2 -9 19 -72 37 -141 18 -69 33
-126 33 -127 2 -3 287 64 291 69 2 2 -11 61 -28 131 l-32 127 -65 -1 c-36 0
-104 -10 -153 -21z m9 -62 c3 -8 11 -13 17 -11 18 6 67 -38 59 -52 -6 -9 -15
-6 -32 10 -14 13 -29 25 -35 26 -21 7 -45 28 -38 34 11 11 23 8 29 -7z m140
-79 c8 3 14 0 14 -6 0 -6 -5 -11 -11 -11 -5 0 -7 -5 -3 -12 4 -6 -4 -3 -18 8
-14 10 -24 23 -21 27 3 5 10 4 15 -1 6 -6 17 -8 24 -5z m55 -36 c24 -22 10
-37 -21 -21 -21 11 -25 22 -13 33 9 10 12 9 34 -12z"/>
<path d="M370 1490 c0 -127 0 -130 22 -130 20 0 20 1 5 13 -15 10 -17 27 -15
121 l3 108 203 0 c117 0 202 3 202 9 0 5 -89 9 -210 9 l-210 0 0 -130z"/>
<path d="M930 1609 c0 -5 5 -7 10 -4 6 3 10 8 10 11 0 2 -4 4 -10 4 -5 0 -10
-5 -10 -11z"/>
<path d="M1068 1613 c46 -2 118 -2 160 0 42 1 5 3 -83 3 -88 0 -123 -2 -77 -3z"/>
<path d="M1525 1610 c8 -13 325 -13 345 0 10 6 -46 10 -168 10 -120 0 -181 -3
-177 -10z"/>
<path d="M1898 1496 c3 -113 1 -125 -15 -129 -14 -4 -13 -5 5 -6 22 -1 22 1
22 129 0 72 -3 130 -7 130 -5 0 -7 -56 -5 -124z"/>
<path d="M784 1495 c0 -55 1 -76 3 -47 2 29 2 74 0 100 -2 26 -3 2 -3 -53z"/>
<path d="M1097 1553 c-16 -8 -40 -12 -55 -9 -34 7 -57 -7 -49 -28 6 -14 20
-16 84 -14 71 3 78 5 81 25 5 32 -26 45 -61 26z"/>
<path d="M1203 1553 c-28 -10 -13 -33 21 -33 30 0 55 14 44 25 -7 7 -53 12
-65 8z"/>
<path d="M2170 1050 l0 -500 227 2 227 3 28 140 c15 77 30 145 32 150 9 20 6
-49 -3 -84 -5 -20 -15 -67 -21 -106 -6 -38 -14 -78 -17 -87 -4 -17 29 -18 596
-18 l601 0 0 500 0 500 -835 0 -835 0 0 -500z m586 413 c-4 -43 -13 -105 -21
-138 -7 -33 -24 -112 -36 -175 -12 -63 -26 -123 -31 -132 -11 -22 -53 -23
-128 -4 -30 8 -75 17 -100 21 -49 8 -134 29 -164 41 -17 6 -18 15 -13 83 3 42
8 84 12 93 12 30 87 33 225 8 69 -12 136 -23 150 -24 32 -1 34 28 3 32 -32 5
-29 21 4 19 28 -2 32 8 67 194 l6 37 -57 10 -58 9 74 2 74 1 -7 -77z m-176
-173 c0 -5 -9 -6 -20 -3 -11 3 -20 9 -20 13 0 5 9 6 20 3 11 -3 20 -9 20 -13z
m380 -545 c16 -8 34 -24 40 -34 16 -31 12 -35 -10 -10 -13 16 -19 19 -20 10 0
-12 -3 -12 -12 -3 -7 7 -34 12 -60 12 -39 0 -54 -5 -73 -25 -26 -25 -33 -18
-14 16 12 23 62 48 97 49 13 0 36 -7 52 -15z"/>
<path d="M1012 1449 c2 -6 8 -10 13 -10 5 0 11 4 13 10 2 6 -4 11 -13 11 -9 0
-15 -5 -13 -11z"/>
<path d="M5305 1440 c-3 -5 -3 -14 0 -20 3 -5 -1 -10 -9 -10 -16 0 -31 -34
-21 -50 4 -6 3 -10 -2 -9 -40 7 -54 -33 -21 -62 l23 -20 -27 16 c-25 15 -27
15 -42 -7 -16 -22 -15 -24 5 -40 23 -20 18 -24 -11 -8 -19 10 -35 -1 -42 -29
-2 -7 -13 -25 -25 -39 -29 -31 -29 -36 2 -52 22 -12 27 -11 41 6 14 18 15 18
4 -4 -7 -13 -10 -25 -8 -26 24 -18 105 -60 111 -58 4 1 7 -2 7 -6 0 -12 59
-44 70 -37 6 3 10 0 10 -7 0 -11 57 -48 302 -196 l38 -23 0 41 c0 25 -4 39
-10 35 -5 -3 -10 1 -10 9 0 9 5 16 10 16 6 0 10 44 10 111 0 71 -4 108 -10
104 -5 -3 -10 -1 -10 6 0 6 -7 17 -16 24 -16 11 -16 12 0 18 10 4 16 1 16 -8
0 -7 4 -16 10 -20 5 -3 9 20 9 60 -1 36 -5 65 -10 65 -6 0 -23 10 -38 21 -29
21 -57 18 -48 -5 3 -6 -4 -12 -14 -12 -26 0 -24 22 4 30 l22 6 -25 20 c-31 25
-41 25 -47 1 -3 -11 -13 -21 -23 -24 -13 -3 -16 0 -13 14 3 11 12 19 19 19 28
0 13 21 -36 51 -52 32 -65 34 -64 9 0 -9 -8 -16 -18 -16 -10 0 -18 5 -18 12 0
18 -45 34 -60 21 -10 -9 -11 -9 -6 1 4 7 2 20 -5 28 -10 12 -9 13 7 8 10 -4
30 -16 43 -26 30 -23 41 -23 41 2 0 13 -9 22 -26 26 -15 4 -35 15 -45 25 -21
21 -35 24 -44 9z m71 -133 c8 3 14 0 14 -7 0 -7 8 -19 18 -26 16 -13 16 -13 0
-14 -10 0 -18 4 -18 10 0 5 -10 14 -21 21 -17 9 -25 8 -37 -5 -14 -13 -14 -20
-4 -36 10 -16 10 -20 -2 -20 -21 0 -28 31 -11 50 19 21 19 36 -1 44 -8 3 -12
11 -9 16 4 7 16 1 32 -14 13 -14 31 -22 39 -19z m114 8 c0 -8 -6 -15 -14 -15
-20 0 -31 -38 -16 -55 7 -9 8 -15 0 -20 -5 -3 -10 0 -10 9 0 8 -5 16 -11 18
-7 2 -3 18 11 41 23 38 40 48 40 22z m39 -112 c9 -7 22 -10 29 -8 6 2 12 -1
12 -7 0 -6 8 -17 18 -24 10 -8 12 -13 5 -14 -7 0 -22 9 -34 21 -11 11 -27 18
-35 15 -8 -3 -14 1 -14 8 0 8 -8 17 -17 20 -15 6 -15 8 -3 16 10 6 16 5 19 -3
2 -7 11 -17 20 -24z m-149 17 c0 -17 40 -33 54 -21 17 14 15 -34 -2 -51 -11
-11 -12 -10 -7 3 8 21 -19 43 -45 36 -11 -3 -17 -1 -14 4 3 6 0 16 -6 24 -10
12 -9 15 4 15 9 0 16 -4 16 -10z m-71 -42 c8 -12 21 -18 32 -15 11 3 19 0 19
-7 0 -15 38 -38 50 -31 6 4 10 -1 10 -9 0 -9 12 -19 28 -22 26 -7 51 -30 52
-48 0 -6 -10 0 -21 13 -13 14 -29 21 -40 18 -12 -3 -19 0 -19 9 0 7 -9 18 -19
24 -15 7 -24 6 -36 -6 -9 -9 -14 -22 -11 -29 3 -8 -4 -12 -20 -11 -13 0 -24 7
-24 15 0 8 6 11 15 7 22 -8 45 42 24 55 -8 5 -22 9 -31 9 -10 0 -18 6 -18 14
0 13 -20 26 -41 26 -5 0 -15 -11 -21 -25 -11 -24 -48 -36 -48 -15 0 6 9 10 20
10 13 0 22 9 26 25 5 21 10 24 33 18 14 -3 32 -15 40 -25z m361 22 c0 -5 -6
-10 -14 -10 -19 0 -31 -39 -17 -53 6 -6 11 -15 11 -19 0 -15 -15 -8 -27 12
-10 15 -9 25 5 49 16 30 42 42 42 21z m-162 -79 c-12 -4 -29 20 -21 32 3 4 11
0 18 -10 9 -12 10 -19 3 -22z m-228 -1 c4 0 10 -6 13 -14 4 -10 0 -12 -14 -9
-12 4 -26 -2 -35 -13 -14 -18 -14 -18 -4 4 6 12 8 28 4 34 -5 8 -2 9 10 5 10
-4 21 -7 26 -7z m280 -11 c0 -5 16 -17 35 -25 34 -14 42 -24 28 -37 -3 -4 -13
2 -21 14 -8 12 -22 19 -31 16 -11 -2 -21 5 -28 19 -9 19 -8 24 3 24 8 0 14 -5
14 -11z m-146 -64 c-4 -11 5 -20 31 -31 20 -8 35 -18 32 -21 -3 -3 -27 5 -53
17 -43 21 -45 24 -29 37 24 17 26 16 19 -2z m151 -29 c9 -3 21 -4 26 0 5 3 9
-1 9 -9 0 -8 7 -18 16 -21 9 -4 14 -9 10 -13 -3 -3 -14 1 -23 10 -10 8 -24 17
-32 19 -26 6 -60 42 -48 50 7 4 15 0 19 -11 3 -10 14 -21 23 -25z m125 9 c10
-12 10 -15 -3 -15 -8 0 -17 7 -21 15 -3 8 -2 15 3 15 5 0 14 -7 21 -15z m-157
-55 c-3 -11 -9 -17 -15 -14 -5 3 -4 12 3 20 16 19 18 18 12 -6z m127 0 c0 -5
-4 -10 -10 -10 -5 0 -10 5 -10 10 0 6 5 10 10 10 6 0 10 -4 10 -10z m-60 -50
c11 -11 17 -20 13 -20 -11 1 -43 26 -43 34 0 11 9 7 30 -14z m55 -30 c3 -5 2
-10 -4 -10 -5 0 -13 5 -16 10 -3 6 -2 10 4 10 5 0 13 -4 16 -10z"/>
<path d="M1000 1380 c-10 -19 -8 -20 97 -20 75 0 103 3 93 10 -8 6 -44 9 -79
8 -44 -2 -66 1 -69 10 -6 19 -30 14 -42 -8z"/>
<path d="M780 1381 c0 -5 -8 -12 -17 -14 -14 -4 -12 -5 5 -6 13 -1 22 5 22 14
0 8 -2 15 -5 15 -3 0 -5 -4 -5 -9z"/>
<path d="M1332 1375 c-11 -12 -10 -15 3 -15 8 0 15 7 15 15 0 18 -2 18 -18 0z"/>
<path d="M930 1370 c0 -6 7 -10 15 -10 8 0 15 2 15 4 0 2 -7 6 -15 10 -8 3
-15 1 -15 -4z"/>
<path d="M1498 1363 c7 -3 16 -2 19 1 4 3 -2 6 -13 5 -11 0 -14 -3 -6 -6z"/>
<path d="M1693 1363 c15 -2 37 -2 50 0 12 2 0 4 -28 4 -27 0 -38 -2 -22 -4z"/>
<path d="M562 1315 c-7 -8 -26 -15 -42 -15 -17 0 -30 -4 -30 -10 0 -6 37 -10
90 -10 53 0 90 4 90 10 0 6 -14 10 -30 10 -18 0 -33 6 -36 15 -8 19 -25 19
-42 0z"/>
<path d="M1123 1314 c-3 -8 -15 -14 -27 -13 -34 2 -46 0 -46 -11 0 -6 37 -10
90 -10 50 0 90 4 90 9 0 13 -27 21 -45 15 -8 -4 -17 1 -21 10 -8 20 -33 21
-41 0z"/>
<path d="M1676 1314 c-4 -10 -14 -14 -26 -11 -10 3 -27 -1 -37 -9 -16 -12 -5
-13 80 -14 58 0 97 4 97 10 0 6 -3 10 -7 11 -5 0 -21 2 -37 3 -16 1 -31 7 -34
14 -5 17 -29 15 -36 -4z"/>
<path d="M473 1193 c59 -2 155 -2 215 0 59 1 10 3 -108 3 -118 0 -167 -2 -107
-3z"/>
<path d="M974 1191 c8 -12 308 -14 337 -2 17 7 -31 10 -159 10 -101 1 -181 -3
-178 -8z"/>
<path d="M1505 1193 c11 -3 24 -9 30 -14 13 -13 315 -12 315 1 0 6 11 10 25
10 l25 0 0 -120 0 -120 -212 -3 -213 -2 218 -3 218 -2 -3 128 -3 127 -210 1
c-115 1 -201 0 -190 -3z"/>
<path d="M1590 1085 l0 -65 105 0 105 0 0 65 0 65 -105 0 -105 0 0 -65z m120
5 c0 -5 -7 -10 -15 -10 -8 0 -15 5 -15 10 0 6 7 10 15 10 8 0 15 -4 15 -10z"/>
<path d="M1097 1053 c-4 -3 -7 -10 -7 -14 0 -11 29 -19 35 -10 6 11 -20 33
-28 24z"/>
<path d="M1256 1035 c-3 -9 0 -15 9 -15 16 0 20 16 6 24 -5 3 -11 -1 -15 -9z"/>
<path d="M575 950 l-210 -6 213 -2 c136 -1 212 2 212 8 0 6 -1 9 -2 8 -2 -1
-97 -5 -213 -8z"/>
<path d="M1145 950 l-210 -6 213 -2 c136 -1 212 2 212 8 0 6 -1 9 -2 8 -2 -1
-97 -5 -213 -8z"/>
<path d="M565 901 c-6 -5 -23 -11 -39 -13 -16 -2 -31 -9 -34 -15 -3 -10 19
-13 88 -13 69 0 91 3 88 13 -3 6 -18 13 -34 15 -16 2 -33 8 -38 13 -6 5 -13 9
-16 9 -3 0 -10 -4 -15 -9z"/>
<path d="M1130 900 c0 -5 -13 -10 -29 -10 -16 0 -34 -7 -41 -15 -11 -13 -1
-15 85 -15 73 0 96 3 93 13 -3 6 -21 13 -41 15 -20 2 -37 7 -37 13 0 5 -7 9
-15 9 -8 0 -15 -4 -15 -10z"/>
<path d="M1680 901 c0 -6 -17 -11 -37 -13 -20 -2 -38 -9 -41 -15 -3 -10 20
-13 93 -13 86 0 96 2 85 15 -7 8 -25 15 -41 15 -16 0 -29 5 -29 10 0 6 -7 10
-15 10 -8 0 -15 -4 -15 -9z"/>
<path d="M4262 843 c-10 -16 -65 -105 -121 -200 -92 -156 -117 -213 -92 -213
8 0 261 422 261 435 0 16 -31 1 -48 -22z"/>
<path d="M4859 826 c6 -7 48 -37 94 -65 45 -29 104 -67 131 -84 78 -51 116
-73 201 -116 44 -22 107 -61 140 -86 39 -29 70 -45 89 -45 27 0 25 2 -20 26
-27 14 -51 30 -54 35 -7 10 -170 109 -181 109 -7 0 -48 24 -292 174 -112 68
-127 76 -108 52z"/>
<path d="M409 757 c6 -8 23 -12 41 -9 21 3 32 0 36 -12 5 -14 25 -16 130 -16
69 0 124 4 124 9 0 5 3 16 6 25 5 14 -14 16 -171 16 -147 0 -176 -2 -166 -13z"/>
<path d="M930 759 c0 -5 5 -7 10 -4 6 3 10 8 10 11 0 2 -4 4 -10 4 -5 0 -10
-5 -10 -11z"/>
<path d="M1344 645 c0 -71 1 -99 3 -62 2 37 2 96 0 130 -2 34 -3 4 -3 -68z"/>
<path d="M1482 643 l3 -128 25 -3 c23 -2 24 -1 8 11 -15 12 -18 31 -18 121 0
58 1 107 3 107 1 1 54 5 117 9 l115 7 -128 1 -128 2 3 -127z"/>
<path d="M1863 757 c27 -11 27 -11 27 -111 0 -81 -3 -103 -17 -119 -17 -18
-17 -19 7 -16 25 4 25 4 28 132 l3 127 -38 -1 c-38 -1 -38 -1 -10 -12z"/>
<path d="M4663 642 c-74 -127 -97 -170 -78 -147 15 19 60 92 113 183 13 24 22
45 20 47 -2 2 -27 -35 -55 -83z"/>
<path d="M5700 486 c0 -43 -1 -45 -32 -49 -32 -4 -32 -4 5 -5 l37 -2 0 50 c0
28 -2 50 -5 50 -3 0 -5 -20 -5 -44z"/>
<path d="M565 471 c-6 -5 -23 -11 -39 -13 -16 -2 -31 -9 -34 -15 -3 -10 19
-13 88 -13 69 0 91 3 88 13 -3 6 -18 13 -34 15 -16 2 -33 8 -38 13 -6 5 -13 9
-16 9 -3 0 -10 -4 -15 -9z"/>
<path d="M1125 470 c-3 -5 -22 -10 -41 -10 -24 0 -34 -5 -34 -15 0 -12 17 -15
90 -15 73 0 90 3 90 15 0 10 -11 15 -35 15 -19 0 -35 5 -35 10 0 6 -6 10 -14
10 -8 0 -18 -4 -21 -10z"/>
<path d="M1680 471 c0 -6 -17 -11 -37 -13 -20 -2 -38 -9 -41 -15 -3 -10 20
-13 92 -13 53 0 96 4 96 9 0 11 -25 21 -56 21 -13 0 -24 5 -24 10 0 6 -7 10
-15 10 -8 0 -15 -4 -15 -9z"/>
</g>
</svg>
